<?xml version="1.0" encoding="utf-8"?>
<!-- Generator: Adobe Illustrator 24.0.1, SVG Export Plug-In . SVG Version: 6.00 Build 0)  -->
<svg version="1.1" id="Graphane" xmlns="http://www.w3.org/2000/svg"
     xmlns:xlink="http://www.w3.org/1999/xlink" x="0px" y="0px"
     viewBox="0 0 50 20" style="enable-background:new 0 0 50 20;" xml:space="preserve">
<style type="text/css">
	.st0{fill:#D80000;}
	.st1{fill:#00D800;}
	.st2{fill:#0000D8;}
</style>
    <g>
	<path class="st0" d="M4.1,5.4c0,0.8,0.7,1.5,1.5,1.5h26.8c0.8,0,1.5-0.7,1.5-1.5s-0.7-1.5-1.5-1.5H5.6C4.8,3.9,4.1,4.6,4.1,5.4
		L4.1,5.4z"/>
        <path class="st1" d="M4.1,10c0,0.8,0.7,1.5,1.5,1.5h38.7c0.8,0,1.5-0.7,1.5-1.5c0-0.8-0.7-1.5-1.5-1.5H5.6C4.8,8.5,4.1,9.2,4.1,10
		L4.1,10z"/>
        <path class="st2" d="M4.1,14.6c0,0.8,0.7,1.5,1.5,1.5c0,0,0,0,0,0h20.9c0.8,0,1.5-0.7,1.5-1.5s-0.7-1.5-1.5-1.5H5.6
		C4.8,13.1,4.1,13.8,4.1,14.6L4.1,14.6z"/>
</g>
</svg>
